<svg width="40" height="48" viewBox="0 0 40 48" fill="none" xmlns="http://www.w3.org/2000/svg">
<path d="M38.9892 41.113L26.319 22.4733V8.4375H28.1423V0H11.9236V8.4375H13.747V22.4733L1.0768 41.113C0.156143 42.4669 0.0605623 44.2072 0.826309 45.6541C1.59242 47.101 3.08546 48 4.72279 48H35.3428C36.9801 48 38.4732 47.101 39.2393 45.6541C40.0054 44.2072 39.9094 42.4669 38.9892 41.113ZM14.7361 2.8125H25.3298V5.625H14.7361V2.8125ZM16.5595 23.3386V8.4375H23.5065V23.3386L29.0689 31.5216C28.6356 31.8219 28.0504 32.1537 27.3484 32.3727C25.3394 32.9993 23.2604 32.4357 21.1693 30.6969C18.1649 28.199 15.3444 27.8914 13.224 28.2455L16.5595 23.3386ZM36.7538 44.3383C36.4722 44.87 35.9448 45.1875 35.3428 45.1875H4.72279C4.12111 45.1875 3.59377 44.87 3.31215 44.3383C3.03053 43.8062 3.06422 43.1917 3.4026 42.694L10.1969 32.699C10.4727 32.4536 11.4424 31.6571 12.8333 31.2231C15.0379 30.5347 17.2377 31.0854 19.3712 32.8594C21.7307 34.8215 23.9229 35.4335 25.7393 35.4331C26.7251 35.4331 27.6004 35.2529 28.3317 35.0105C29.2754 34.6978 30.0562 34.2601 30.6516 33.8503L36.663 42.694C37.0014 43.1917 37.035 43.8065 36.7538 44.3383Z" fill="#F5A623"/>
</svg>
