<svg width="48" height="48" viewBox="0 0 48 48" fill="none" xmlns="http://www.w3.org/2000/svg">
<path d="M0 0V48H48V0H0ZM45.123 22.5752H25.4248V2.877H45.1229V22.5752H45.123ZM22.5752 2.877V22.5751H2.877V2.877H22.5752ZM2.877 25.4248H22.5752V45.1229H2.877V25.4248ZM25.4248 45.123V25.4248H45.1229V45.1229H25.4248V45.123Z" fill="#F5A623"/>
<path d="M11.302 18.8648H14.1517V14.1507H18.8658V11.301H14.1517V6.58691H11.302V11.301H6.58789V14.1507H11.302V18.8648Z" fill="#F5A623"/>
<path d="M29.1055 33.8486H41.3833V36.6983H29.1055V33.8486Z" fill="#F5A623"/>
<path d="M18.104 31.9408L16.0889 29.9258L12.7556 33.2592L9.42229 29.9258L7.40723 31.9408L10.7405 35.2742L7.40723 38.6076L9.42229 40.6227L12.7556 37.2893L16.0889 40.6227L18.104 38.6076L14.7706 35.2742L18.104 31.9408Z" fill="#F5A623"/>
<path d="M29.1055 11.3018H41.3833V14.1514H29.1055V11.3018Z" fill="#F5A623"/>
<path d="M33.7988 28.1279H36.6906V30.9776H33.7988V28.1279Z" fill="#F5A623"/>
<path d="M33.7988 39.4365H36.6906V42.2861H33.7988V39.4365Z" fill="#F5A623"/>
</svg>
