<svg width="44" height="48" viewBox="0 0 44 48" fill="none" xmlns="http://www.w3.org/2000/svg">
<path d="M22.0527 19.4062C19.5197 19.4062 17.459 21.4669 17.459 24C17.459 26.5331 19.5197 28.5938 22.0527 28.5938C24.5858 28.5938 26.6465 26.5331 26.6465 24C26.6465 21.4669 24.5858 19.4062 22.0527 19.4062ZM22.0527 25.7812C21.0706 25.7812 20.2715 24.9822 20.2715 24C20.2715 23.0178 21.0706 22.2188 22.0527 22.2188C23.0349 22.2188 23.834 23.0178 23.834 24C23.834 24.9822 23.0349 25.7812 22.0527 25.7812Z" fill="#F5A623"/>
<path d="M39.1046 24C39.5246 23.5225 39.9201 23.0435 40.2893 22.5648C43.4779 18.4288 44.3824 14.677 42.837 12C41.2912 9.323 37.5896 8.23059 32.4139 8.92383C31.8144 9.00403 31.2021 9.1073 30.5785 9.23218C30.3748 8.62976 30.158 8.04785 29.9277 7.48865C27.9403 2.65942 25.1435 0 22.0523 0C18.9611 0 16.164 2.65942 14.177 7.48865C13.9466 8.04785 13.7298 8.62976 13.5262 9.23218C12.9026 9.1073 12.2899 9.00403 11.6908 8.92383C6.5151 8.23059 2.81344 9.323 1.26766 12C-0.277746 14.677 0.626795 18.4288 3.81539 22.5648C4.18453 23.0435 4.58004 23.5225 4.99972 24C4.58004 24.4775 4.18453 24.9565 3.81539 25.4352C0.626795 29.5712 -0.277746 33.323 1.26766 36C2.50985 38.1515 5.14474 39.2794 8.8182 39.2794C9.71542 39.2794 10.6749 39.212 11.6908 39.0762C12.2899 38.996 12.9026 38.8927 13.5258 38.7678C13.7295 39.3702 13.9466 39.9521 14.1766 40.5114C16.164 45.3406 18.9611 48 22.0523 48C25.1435 48 27.9403 45.3406 29.9277 40.5114C30.1577 39.9521 30.3748 39.3702 30.5785 38.7678C31.2021 38.8927 31.8144 38.996 32.4135 39.0762C33.4298 39.2124 34.3889 39.2798 35.2861 39.2794C38.9596 39.2794 41.5948 38.1515 42.8366 36C44.3824 33.323 43.4775 29.5712 40.2893 25.4355C39.9201 24.9565 39.5246 24.4775 39.1046 24ZM32.7871 11.7114C33.7008 11.5891 34.5518 11.5291 35.3322 11.5291C37.8954 11.5291 39.6923 12.1787 40.4013 13.4062C41.4286 15.1853 40.2369 18.3948 37.1556 21.9617C35.7527 20.6038 34.1655 19.274 32.4351 18.0055C32.2019 15.8741 31.8441 13.8362 31.3702 11.9432C31.8507 11.8513 32.3238 11.7737 32.7871 11.7114ZM25.9983 30.835C24.6869 31.5923 23.3659 32.2826 22.0523 32.9008C20.7384 32.2826 19.4174 31.5923 18.106 30.835C16.7683 30.0626 15.5125 29.2639 14.3425 28.4513C14.2238 27.0315 14.1598 25.5447 14.1598 24C14.1598 22.4553 14.2238 20.9685 14.3425 19.5487C15.5125 18.7361 16.7683 17.9374 18.106 17.165C19.4174 16.4077 20.7384 15.7174 22.0523 15.0992C23.3663 15.7174 24.6869 16.4077 25.9983 17.165C27.3364 17.9374 28.5918 18.7361 29.7622 19.5487C29.8808 20.9685 29.9445 22.4553 29.9445 24C29.9445 25.5447 29.8808 27.0315 29.7622 28.4513C28.5918 29.2639 27.3364 30.0626 25.9983 30.835ZM29.3139 32.1178C29.125 33.2765 28.8975 34.374 28.6386 35.4042C27.599 35.1086 26.5344 34.7545 25.4544 34.3462C26.1063 34.0031 26.7567 33.6445 27.4045 33.2706C28.0534 32.896 28.6903 32.5111 29.3139 32.1178ZM18.6502 34.3462C17.5703 34.7549 16.5057 35.1086 15.466 35.4042C15.2071 34.374 14.9797 33.2765 14.7907 32.1178C15.4144 32.5115 16.0512 32.8964 16.6998 33.2706C17.3476 33.6445 17.9984 34.0031 18.6502 34.3462ZM11.3912 26.2299C10.4815 25.4861 9.64401 24.7397 8.88082 24C9.64401 23.2603 10.4815 22.5139 11.3912 21.7701C11.3623 22.507 11.3473 23.2507 11.3473 24C11.3473 24.7493 11.3623 25.493 11.3912 26.2299ZM14.7907 15.8822C14.9797 14.7235 15.2071 13.626 15.466 12.5958C16.5057 12.8914 17.5703 13.2455 18.6502 13.6538C17.9984 13.9969 17.3476 14.3555 16.6998 14.7294C16.0512 15.104 15.4144 15.4889 14.7907 15.8822ZM25.4544 13.6538C26.5344 13.2451 27.599 12.8914 28.6386 12.5958C28.8975 13.626 29.1246 14.7235 29.3139 15.8822C28.6903 15.4885 28.0534 15.1036 27.4049 14.7294C26.757 14.3555 26.1063 13.9969 25.4544 13.6538ZM32.7135 21.7701C33.6231 22.5139 34.4607 23.2603 35.2238 24C34.4607 24.7397 33.6231 25.4861 32.7135 26.2299C32.742 25.493 32.757 24.7493 32.757 24C32.757 23.2507 32.742 22.507 32.7135 21.7701ZM22.0523 2.8125C24.1068 2.8125 26.2901 5.44922 27.8385 9.90088C25.9613 10.4374 24.016 11.1467 22.0523 12.0106C20.0883 11.1467 18.1434 10.4374 16.2658 9.90088C17.8142 5.44922 19.9979 2.8125 22.0523 2.8125ZM3.70333 13.4062C4.41232 12.1783 6.20858 11.5291 8.77242 11.5291C9.55282 11.5291 10.4039 11.5891 11.3172 11.7114C11.7808 11.7737 12.254 11.8517 12.7345 11.9432C12.2606 13.8362 11.9028 15.8741 11.6692 18.0055C9.93917 19.274 8.35202 20.6038 6.94906 21.9617C3.86776 18.3948 2.67611 15.1857 3.70333 13.4062ZM11.3172 36.2886C7.4028 36.8126 4.62802 36.1952 3.70333 34.5938C2.67611 32.8143 3.86776 29.6052 6.94906 26.0383C8.35202 27.3959 9.93917 28.726 11.6692 29.9945C11.9028 32.1259 12.2606 34.1638 12.7345 36.0568C12.254 36.1487 11.7808 36.2263 11.3172 36.2886ZM22.0523 45.1875C19.9979 45.1875 17.8142 42.5508 16.2658 38.0991C18.1434 37.5626 20.0883 36.8533 22.0523 35.9894C24.016 36.8533 25.9613 37.5626 27.8385 38.0991C26.2901 42.5508 24.1068 45.1875 22.0523 45.1875ZM40.4013 34.5938C39.4767 36.1952 36.7011 36.8126 32.7871 36.2886C32.3238 36.2263 31.8507 36.1487 31.3702 36.0568C31.8441 34.1638 32.2019 32.1259 32.4351 29.9945C34.1655 28.726 35.7527 27.3962 37.1556 26.0383C40.2369 29.6052 41.4286 32.8143 40.4013 34.5938Z" fill="#F5A623"/>
</svg>
